<svg width="92" height="88" xmlns="http://www.w3.org/2000/svg" xmlns:xlink="http://www.w3.org/1999/xlink" overflow="hidden"><defs><filter id="fx0" x="-10%" y="-10%" width="120%" height="120%" filterUnits="userSpaceOnUse" primitiveUnits="userSpaceOnUse"><feComponentTransfer color-interpolation-filters="sRGB"><feFuncR type="discrete" tableValues="0 0"/><feFuncG type="discrete" tableValues="0 0"/><feFuncB type="discrete" tableValues="0 0"/><feFuncA type="linear" slope="0.631373" intercept="0"/></feComponentTransfer><feGaussianBlur stdDeviation="2 2"/></filter><clipPath id="clip1"><rect x="413" y="89" width="92" height="88"/></clipPath><linearGradient x1="459" y1="93" x2="459" y2="168" gradientUnits="userSpaceOnUse" spreadMethod="reflect" id="fill2"><stop offset="0" stop-color="#F18C55"/><stop offset="0.5" stop-color="#F67B28"/><stop offset="1" stop-color="#E56B17"/></linearGradient></defs><g clip-path="url(#clip1)" transform="translate(-413 -89)"><g filter="url(#fx0)" transform="translate(413 88)"><g><path d="M7 19.5002C7 12.5965 12.5965 7 19.5002 7L72.4998 7C79.4035 7 85 12.5965 85 19.5002L85 69.4998C85 76.4035 79.4035 82 72.4998 82L19.5002 82C12.5965 82 7 76.4035 7 69.4998Z" fill="#FF0000" fill-rule="evenodd"/></g></g><path d="M420 105.5C420 98.5965 425.597 93 432.5 93L485.5 93C492.403 93 498 98.5965 498 105.5L498 155.5C498 162.403 492.403 168 485.5 168L432.5 168C425.597 168 420 162.403 420 155.5Z" fill="url(#fill2)" fill-rule="evenodd"/><g><g><g><path d="M57.75 27.5625 35.4375 27.5625 35.4375 5.25 27.5625 5.25 27.5625 27.5625 5.25 27.5625 5.25 35.4375 27.5625 35.4375 27.5625 57.75 35.4375 57.75 35.4375 35.4375 57.75 35.4375Z" fill="#FFFFFF" transform="matrix(1 0 0 1.04762 428 96)"/></g></g></g></g></svg>